<svg width="200" height="46" viewBox="0 0 200 46" fill="none" xmlns="http://www.w3.org/2000/svg">
<g clip-path="url(#clip0_541_5547)">
<path d="M197.09 2.91718C195.7 1.52572 193.895 0.62597 191.949 0.354219C190.003 0.082467 188.021 0.453528 186.304 1.41118C185.578 1.82 184.912 2.32673 184.323 2.91718C183.485 3.75646 182.82 4.75333 182.366 5.85063C181.913 6.94793 181.68 8.12407 181.682 9.3116V22.7619C181.681 27.2627 179.905 31.5807 176.739 34.7748C173.574 37.9688 169.276 39.7798 164.784 39.813C155.354 39.8791 147.636 32.0074 147.636 22.5591V9.47918C147.636 7.08152 146.686 4.78206 144.993 3.08665C143.301 1.39125 141.005 0.438789 138.612 0.438789C136.218 0.438789 133.923 1.39125 132.23 3.08665C130.538 4.78206 129.587 7.08152 129.587 9.47918C129.587 14.4734 133.151 18.5196 138.138 18.5196H142.853V24.3561C142.853 29.8573 145.035 35.1332 148.918 39.0231C152.801 42.913 158.068 45.0983 163.56 45.0983H165.62C171.112 45.0983 176.378 42.913 180.262 39.0231C184.145 35.1332 186.326 29.8573 186.326 24.3561V18.3652H191.184C196.172 18.3652 199.736 14.3147 199.736 9.32483C199.739 8.13471 199.507 6.95578 199.053 5.85602C198.598 4.75626 197.931 3.75745 197.09 2.91718ZM142.195 13.0799H138.409C136.428 13.0799 135.004 11.4681 135.004 9.47918C134.992 8.99868 135.076 8.52066 135.252 8.07327C135.427 7.62587 135.69 7.21815 136.025 6.8741C136.36 6.53006 136.761 6.25665 137.203 6.06998C137.645 5.8833 138.12 5.78713 138.6 5.78713C139.079 5.78713 139.554 5.8833 139.997 6.06998C140.439 6.25665 140.839 6.53006 141.174 6.8741C141.509 7.21815 141.772 7.62587 141.947 8.07327C142.123 8.52066 142.207 8.99868 142.195 9.47918V13.0799ZM190.898 12.9211H187.108V9.3116C187.108 8.35604 187.487 7.43962 188.161 6.76394C188.836 6.08826 189.751 5.70867 190.705 5.70867C191.658 5.70867 192.573 6.08826 193.248 6.76394C193.922 7.43962 194.301 8.35604 194.301 9.3116C194.301 11.3093 192.879 12.9211 190.898 12.9211Z" fill="url(#paint0_linear_541_5547)"/>
<path d="M181.676 13.0799L177.579 15.1923C175.893 16.0436 174.566 17.4698 173.837 19.2141C173.657 19.6094 173.548 20.0333 173.514 20.4666V23.5689C173.514 25.8729 172.605 28.0835 170.984 29.7182C169.364 31.3529 167.163 32.2789 164.863 32.294H164.423C162.123 32.2789 159.922 31.353 158.301 29.7183C156.68 28.0837 155.77 25.8731 155.77 23.5689V20.4666C155.737 20.0334 155.628 19.6095 155.449 19.2141C154.719 17.4698 153.392 16.0436 151.707 15.1923L147.61 13.0799H152.726C153.336 13.0799 155.587 13.2144 156.248 13.4018C158.805 14.1295 160.883 16.1294 160.883 18.524V23.8159C160.883 24.7516 161.254 25.6489 161.915 26.3105C162.575 26.9722 163.471 27.3439 164.405 27.3439H164.564H164.724H164.804C165.723 27.3214 166.597 26.9398 167.239 26.2806C167.881 25.6214 168.24 24.7369 168.24 23.8159V18.524C168.24 16.1294 170.318 14.1295 172.875 13.4018C173.536 13.2144 175.781 13.0799 176.397 13.0799H181.676Z" fill="url(#paint1_linear_541_5547)"/>
<path d="M13.8144 1.00551C13.2574 0.451937 12.5261 0.108799 11.7449 0.0344686C10.9638 -0.0398621 10.1811 0.15921 9.52994 0.597818C8.87881 1.03643 8.39949 1.68747 8.17354 2.44019C7.94758 3.19291 7.98895 4.00079 8.2906 4.7264C8.59225 5.45201 9.13555 6.05052 9.82806 6.42009C10.5206 6.78966 11.3195 6.90747 12.089 6.75347C12.8584 6.59947 13.5508 6.18317 14.0484 5.57541C14.546 4.96765 14.818 4.20597 14.8182 3.41996C14.8244 2.97017 14.7386 2.52386 14.5659 2.1086C14.3933 1.69333 14.1375 1.31791 13.8144 1.00551ZM5.82199 1.00551C5.26528 0.45417 4.53512 0.112997 3.75566 0.0399999C2.97621 -0.0329977 2.19557 0.166691 1.54648 0.605105C0.897394 1.04352 0.41992 1.6936 0.195245 2.44482C-0.029431 3.19604 0.0125615 4.00202 0.314081 4.72572C0.6156 5.44943 1.15803 6.04619 1.84916 6.41454C2.54028 6.78289 3.33742 6.90009 4.10506 6.74621C4.87269 6.59233 5.56343 6.17687 6.05983 5.57047C6.55622 4.96407 6.82764 4.20417 6.82792 3.41996C6.83415 2.96997 6.74808 2.52349 6.57505 2.10818C6.40201 1.69287 6.1457 1.31756 5.82199 1.00551Z" fill="url(#paint2_linear_541_5547)"/>
<path d="M64.9785 2.22921C64.4214 1.67557 63.69 1.33241 62.9088 1.25814C62.1275 1.18386 61.3447 1.38306 60.6936 1.82182C60.0424 2.26059 59.5632 2.91181 59.3374 3.66468C59.1116 4.41754 59.1532 5.22552 59.4551 5.95112C59.757 6.67672 60.3006 7.2751 60.9934 7.64444C61.6861 8.01377 62.4852 8.13124 63.2547 7.97685C64.0241 7.82245 64.7164 7.40574 65.2137 6.79762C65.711 6.1895 65.9826 5.42756 65.9822 4.64145C65.9881 4.19205 65.902 3.7462 65.7294 3.33135C65.5568 2.91651 65.3012 2.54144 64.9785 2.22921Z" fill="url(#paint3_linear_541_5547)"/>
<path d="M113.888 2.22921C113.331 1.67557 112.6 1.33241 111.818 1.25814C111.037 1.18386 110.254 1.38306 109.603 1.82182C108.952 2.26059 108.473 2.91181 108.247 3.66468C108.021 4.41754 108.063 5.22552 108.365 5.95112C108.667 6.67672 109.21 7.2751 109.903 7.64444C110.596 8.01377 111.395 8.13124 112.164 7.97685C112.934 7.82245 113.626 7.40574 114.123 6.79762C114.621 6.1895 114.892 5.42756 114.892 4.64145C114.898 4.19205 114.812 3.7462 114.639 3.33135C114.466 2.91651 114.211 2.54144 113.888 2.22921ZM105.896 2.22921C105.339 1.6778 104.609 1.33662 103.829 1.26367C103.05 1.19073 102.269 1.39054 101.62 1.82911C100.971 2.26768 100.493 2.91794 100.269 3.66931C100.044 4.42067 100.086 5.22674 100.388 5.95044C100.69 6.67414 101.233 7.27078 101.924 7.63889C102.615 8.007 103.413 8.12385 104.18 7.96958C104.948 7.81531 105.639 7.39943 106.135 6.79268C106.631 6.18592 106.902 5.42576 106.902 4.64145C106.907 4.19185 106.821 3.74583 106.648 3.33094C106.475 2.91604 106.219 2.54109 105.896 2.22921Z" fill="url(#paint4_linear_541_5547)"/>
<path d="M104.534 11.6819V25.0375H99.5128C95.8192 25.0375 93.7846 23.763 93.4089 21.214C93.3297 18.4005 92.1557 16.061 89.8871 14.1956C87.6184 12.3302 84.4927 11.1167 80.5101 10.5552C82.5106 9.46362 84.6161 8.57713 86.7944 7.90924C89.1301 7.16614 91.5293 6.64059 93.9614 6.33929L93.0809 0.385864C88.6918 1.08264 84.9638 2.0271 81.8968 3.21926C78.8042 4.43119 75.8926 6.06346 73.244 8.0702L74.4569 15.6222C76.7464 15.5889 79.0316 15.8325 81.2629 16.3477C83.2014 16.8313 84.7004 17.5156 85.7599 18.4005C86.8194 19.2854 87.3484 20.3144 87.3469 21.4875C87.3469 22.4268 87.1774 23.1434 86.845 23.6395C86.5127 24.1356 85.9404 24.4928 85.1369 24.7067C84.3335 24.9206 83.1955 25.0287 81.7251 25.0287H71.8859C69.6099 25.0287 67.9774 24.5325 66.9883 23.5403C66.1299 22.6296 65.7028 21.4059 65.7028 19.88V11.6819H59.6386V19.8955C59.6386 21.6109 59.1705 22.8979 58.2343 23.7564C57.298 24.6149 56.0933 25.0441 54.62 25.0441C50.9264 25.0441 48.8925 23.7696 48.5183 21.2207C48.4362 18.4071 47.2622 16.0676 44.9965 14.2022C42.7307 12.3368 39.6058 11.1234 35.6217 10.5618C37.6219 9.46944 39.7274 8.58293 41.906 7.91585C44.2417 7.17275 46.6409 6.6472 49.073 6.34591L48.1926 0.392479C43.8005 1.08925 40.0724 2.03372 37.0084 3.22587C33.9151 4.43646 31.0034 6.06883 28.3556 8.07681L29.5531 15.6222C31.8485 15.5874 34.1397 15.831 36.3767 16.3477C38.3181 16.8313 39.8171 17.5156 40.8737 18.4005C41.9302 19.2854 42.4593 20.3144 42.4607 21.4875C42.4607 22.4268 42.2934 23.1441 41.9588 23.6395C41.6221 24.1356 41.0564 24.4928 40.2507 24.7067C39.4451 24.9206 38.3115 25.0287 36.8389 25.0287H26.9997C25.5323 25.0287 24.3348 24.5994 23.4074 23.7409C22.48 22.8825 22.0155 21.6007 22.0141 19.8955V7.10663H15.9477V8.9566C15.0828 8.84431 14.2114 8.79053 13.3393 8.79564C10.9992 8.75909 8.6805 9.24728 6.55308 10.2245C4.62376 11.1075 2.98642 12.5243 1.83378 14.3081C0.696509 16.0721 0.127875 18.1234 0.127875 20.4622C0.0987909 22.2216 0.520132 23.9593 1.35172 25.5093C2.10722 26.9336 3.23082 28.1285 4.60505 28.9689C5.91508 29.7756 7.42345 30.2008 8.96116 30.1971C12.8176 30.1971 15.4678 28.4941 16.9118 25.0882C17.66 26.9283 18.994 28.4693 20.7066 29.4717C22.4338 30.4933 24.5278 31.0027 26.9887 30.9997H36.8301C41.0314 30.9997 44.1365 29.9943 46.1455 27.9833C47.858 29.9972 50.6821 31.0027 54.6178 30.9997C56.3291 31.0313 58.0292 30.717 59.6166 30.0758C61.0157 29.5013 62.2605 28.6055 63.2507 27.4607C64.7505 29.8201 67.6281 30.996 71.8837 30.9887H81.7207C85.9235 30.9887 89.0286 29.9832 91.0361 27.9723C92.7486 29.9862 95.5719 30.9916 99.5062 30.9887H110.591V11.6819H104.534ZM15.9477 17.4347C15.9477 19.5515 15.4597 21.2273 14.4839 22.4621C14.0235 23.058 13.4284 23.5358 12.7476 23.8563C12.0668 24.1768 11.3198 24.3307 10.568 24.3054C9.25611 24.3054 8.18488 23.9636 7.3543 23.2801C6.52373 22.5966 6.10918 21.6242 6.11065 20.3629C6.08554 19.5305 6.26466 18.7046 6.6323 17.9577C6.99995 17.2108 7.54489 16.5656 8.21936 16.0787C9.62371 15.0203 11.4103 14.4911 13.5792 14.4911C14.3726 14.4987 15.1643 14.5658 15.9477 14.6917V17.4347Z" fill="url(#paint5_linear_541_5547)"/>
<path d="M0.292969 38.0358H5.78048V38.6973H3.39221V45.2879H2.67903V38.6884H0.292969V38.0358Z" fill="url(#paint6_linear_541_5547)"/>
<path d="M30.8117 45.2791L28.8923 42.4545L27.6729 43.7092V45.2813H26.9795V37.6014H27.6729V42.8272L30.585 39.8681H31.4104L29.3766 41.9694L31.6482 45.2901L30.8117 45.2791Z" fill="url(#paint7_linear_541_5547)"/>
<path d="M57.7917 40.4017C57.9818 40.6091 58.1286 40.8525 58.2235 41.1176C58.3184 41.3826 58.3594 41.664 58.3441 41.9452V45.2769H57.642V42.1128C57.6545 41.8948 57.6236 41.6764 57.5511 41.4705C57.4785 41.2645 57.3658 41.0751 57.2193 40.9133C57.0642 40.7622 56.8794 40.645 56.6767 40.5691C56.474 40.4932 56.2578 40.4603 56.0417 40.4723C55.7958 40.4637 55.5507 40.505 55.3211 40.5937C55.0915 40.6823 54.8822 40.8165 54.7056 40.9883C54.3566 41.3602 54.1527 41.8454 54.1311 42.3553V45.2725H53.4399V39.8571H54.1311V41.1206C54.2968 40.7237 54.5844 40.3901 54.9521 40.168C55.3555 39.9429 55.8112 39.8288 56.2728 39.8373C56.5511 39.8224 56.8294 39.8648 57.0906 39.9619C57.3519 40.0589 57.5904 40.2087 57.7917 40.4017Z" fill="url(#paint8_linear_541_5547)"/>
<path d="M84.7316 45.2791L82.821 42.4545L81.5928 43.7092V45.2813H80.8994V37.6014H81.5928V42.8272L84.5049 39.8681H85.3304L83.2965 41.9694L85.5681 45.2901L84.7316 45.2791Z" fill="url(#paint9_linear_541_5547)"/>
<path d="M110.468 45.2791V44.3685C110.262 44.6793 109.972 44.9248 109.631 45.0763C109.256 45.2383 108.851 45.318 108.443 45.31C108.108 45.3141 107.777 45.2385 107.476 45.0895C107.208 44.9622 106.983 44.7601 106.826 44.5074C106.67 44.2547 106.59 43.9622 106.596 43.6651C106.589 43.4509 106.635 43.2383 106.729 43.046C106.824 42.8538 106.964 42.6877 107.137 42.5626C107.578 42.2704 108.102 42.1289 108.63 42.1591H110.448V41.7468C110.459 41.5632 110.43 41.3794 110.364 41.2078C110.298 41.0363 110.196 40.8809 110.065 40.7523C109.752 40.4981 109.353 40.3728 108.951 40.4017C108.313 40.4254 107.7 40.6577 107.206 41.0632L106.895 40.5891C107.217 40.3569 107.568 40.1672 107.939 40.0247C108.304 39.898 108.688 39.8368 109.074 39.8439C109.729 39.8439 110.235 40.0078 110.593 40.3356C110.775 40.5106 110.918 40.7224 111.012 40.957C111.106 41.1915 111.15 41.4435 111.139 41.696L111.15 45.2858L110.468 45.2791ZM109.781 44.3971C110.114 44.1738 110.355 43.8369 110.459 43.449V42.7037H108.713C108.337 42.6805 107.961 42.7629 107.628 42.9419C107.508 43.0165 107.41 43.1222 107.344 43.2479C107.279 43.3737 107.249 43.5147 107.256 43.6563C107.251 43.8052 107.281 43.9532 107.343 44.0886C107.405 44.2241 107.497 44.3433 107.613 44.4368C107.883 44.6441 108.217 44.7488 108.557 44.7323C108.99 44.7455 109.416 44.6279 109.781 44.3949V44.3971Z" fill="url(#paint10_linear_541_5547)"/>
</g>
<defs>
<linearGradient id="paint0_linear_541_5547" x1="164.652" y1="45.1027" x2="164.652" y2="0.273412" gradientUnits="userSpaceOnUse">
<stop stop-color="#762177"/>
<stop offset="0.15" stop-color="#6E297D"/>
<stop offset="0.38" stop-color="#583F8C"/>
<stop offset="0.66" stop-color="#3562A5"/>
<stop offset="0.98" stop-color="#0394C7"/>
<stop offset="1" stop-color="#0097C9"/>
</linearGradient>
<linearGradient id="paint1_linear_541_5547" x1="164.652" y1="32.294" x2="164.652" y2="13.0799" gradientUnits="userSpaceOnUse">
<stop stop-color="#762177"/>
<stop offset="0.15" stop-color="#6E297D"/>
<stop offset="0.38" stop-color="#583F8C"/>
<stop offset="0.66" stop-color="#3562A5"/>
<stop offset="0.98" stop-color="#0394C7"/>
<stop offset="1" stop-color="#0097C9"/>
</linearGradient>
<linearGradient id="paint2_linear_541_5547" x1="7.40903" y1="6.83987" x2="7.40903" y2="4.81527e-05" gradientUnits="userSpaceOnUse">
<stop stop-color="#762177"/>
<stop offset="0.15" stop-color="#6E297D"/>
<stop offset="0.38" stop-color="#583F8C"/>
<stop offset="0.66" stop-color="#3562A5"/>
<stop offset="0.98" stop-color="#0394C7"/>
<stop offset="1" stop-color="#0097C9"/>
</linearGradient>
<linearGradient id="paint3_linear_541_5547" x1="62.5704" y1="8.06137" x2="62.5704" y2="1.22154" gradientUnits="userSpaceOnUse">
<stop stop-color="#762177"/>
<stop offset="0.15" stop-color="#6E297D"/>
<stop offset="0.38" stop-color="#583F8C"/>
<stop offset="0.66" stop-color="#3562A5"/>
<stop offset="0.98" stop-color="#0394C7"/>
<stop offset="1" stop-color="#0097C9"/>
</linearGradient>
<linearGradient id="paint4_linear_541_5547" x1="107.483" y1="8.06137" x2="107.483" y2="1.22154" gradientUnits="userSpaceOnUse">
<stop stop-color="#762177"/>
<stop offset="0.15" stop-color="#6E297D"/>
<stop offset="0.38" stop-color="#583F8C"/>
<stop offset="0.66" stop-color="#3562A5"/>
<stop offset="0.98" stop-color="#0394C7"/>
<stop offset="1" stop-color="#0097C9"/>
</linearGradient>
<linearGradient id="paint5_linear_541_5547" x1="55.3617" y1="30.9887" x2="55.3617" y2="0.379249" gradientUnits="userSpaceOnUse">
<stop stop-color="#762177"/>
<stop offset="0.15" stop-color="#6E297D"/>
<stop offset="0.38" stop-color="#583F8C"/>
<stop offset="0.66" stop-color="#3562A5"/>
<stop offset="0.98" stop-color="#0394C7"/>
<stop offset="1" stop-color="#0097C9"/>
</linearGradient>
<linearGradient id="paint6_linear_541_5547" x1="3.03562" y1="45.2791" x2="3.03562" y2="38.0358" gradientUnits="userSpaceOnUse">
<stop stop-color="#762177"/>
<stop offset="0.15" stop-color="#6E297D"/>
<stop offset="0.38" stop-color="#583F8C"/>
<stop offset="0.66" stop-color="#3562A5"/>
<stop offset="0.98" stop-color="#0394C7"/>
<stop offset="1" stop-color="#0097C9"/>
</linearGradient>
<linearGradient id="paint7_linear_541_5547" x1="29.3149" y1="45.2791" x2="29.3149" y2="37.6014" gradientUnits="userSpaceOnUse">
<stop stop-color="#762177"/>
<stop offset="0.15" stop-color="#6E297D"/>
<stop offset="0.38" stop-color="#583F8C"/>
<stop offset="0.66" stop-color="#3562A5"/>
<stop offset="0.98" stop-color="#0394C7"/>
<stop offset="1" stop-color="#0097C9"/>
</linearGradient>
<linearGradient id="paint8_linear_541_5547" x1="55.892" y1="45.2791" x2="55.892" y2="39.8373" gradientUnits="userSpaceOnUse">
<stop stop-color="#762177"/>
<stop offset="0.15" stop-color="#6E297D"/>
<stop offset="0.38" stop-color="#583F8C"/>
<stop offset="0.66" stop-color="#3562A5"/>
<stop offset="0.98" stop-color="#0394C7"/>
<stop offset="1" stop-color="#0097C9"/>
</linearGradient>
<linearGradient id="paint9_linear_541_5547" x1="83.2349" y1="45.2791" x2="83.2349" y2="37.6014" gradientUnits="userSpaceOnUse">
<stop stop-color="#762177"/>
<stop offset="0.15" stop-color="#6E297D"/>
<stop offset="0.38" stop-color="#583F8C"/>
<stop offset="0.66" stop-color="#3562A5"/>
<stop offset="0.98" stop-color="#0394C7"/>
<stop offset="1" stop-color="#0097C9"/>
</linearGradient>
<linearGradient id="paint10_linear_541_5547" x1="108.872" y1="45.31" x2="108.872" y2="39.8373" gradientUnits="userSpaceOnUse">
<stop stop-color="#762177"/>
<stop offset="0.15" stop-color="#6E297D"/>
<stop offset="0.38" stop-color="#583F8C"/>
<stop offset="0.66" stop-color="#3562A5"/>
<stop offset="0.98" stop-color="#0394C7"/>
<stop offset="1" stop-color="#0097C9"/>
</linearGradient>
<clipPath id="clip0_541_5547">
<rect width="199.734" height="45.31" fill="white"/>
</clipPath>
</defs>
</svg>
